<?xml version="1.0" encoding="utf-8"?>
<!-- Generator: Adobe Illustrator 21.1.0, SVG Export Plug-In . SVG Version: 6.00 Build 0)  -->
<svg version="1.1" id="Layer_1" xmlns="http://www.w3.org/2000/svg" xmlns:xlink="http://www.w3.org/1999/xlink" x="0px" y="0px"
	 viewBox="0 0 16 16" style="enable-background:new 0 0 16 16;" xml:space="preserve">
<style type="text/css">
	.st0{fill:#009CFF;}
</style>
<title>icon24_ext_link copy</title>
<desc>Created with Sketch.</desc>
<g id="Styleguide-general-UI-sheet">
	<g id="_x30_0-styleguide" transform="translate(-491.000000, -5729.000000)">
		<g id="icons" transform="translate(64.000000, 5047.000000)">
			<g id="icon_x5F_interface_x5F_24_x2F_denim_x2F_icon24_x5F_ext_x5F_link-copy" transform="translate(427.000000, 682.000000)">
				<g id="icon24_extlink-">
					<path id="Shape" class="st0" d="M12,16H4c-2.2,0-4-1.8-4-4V4c0-2.2,1.8-4,4-4h3c0.6,0,1,0.4,1,1S7.6,2,7,2H4C2.9,2,2,2.9,2,4v8
						c0,1.1,0.9,2,2,2h8c1.1,0,2-0.9,2-2V9c0-0.6,0.4-1,1-1s1,0.4,1,1v3C16,14.2,14.2,16,12,16z"/>
					<path id="Shape_1_" class="st0" d="M9,8C8.6,8,8.2,7.8,8.1,7.4C7.9,7,8,6.6,8.3,6.3l6-6c0.4-0.4,1-0.4,1.4,0
						c0.4,0.4,0.4,1,0,1.4l-6,6C9.5,7.9,9.3,8,9,8L9,8z"/>
					<path id="Shape_2_" class="st0" d="M15,2h-4c-0.6,0-1-0.4-1-1s0.4-1,1-1h4c0.6,0,1,0.4,1,1S15.6,2,15,2z"/>
					<path id="Shape_3_" class="st0" d="M15,6c-0.6,0-1-0.4-1-1V1c0-0.6,0.4-1,1-1s1,0.4,1,1v4C16,5.6,15.6,6,15,6z"/>
				</g>
			</g>
		</g>
	</g>
</g>
</svg>
