<?xml version="1.0" encoding="UTF-8"?>
<svg width="39px" height="38px" viewBox="0 0 39 38" version="1.1" xmlns="http://www.w3.org/2000/svg" xmlns:xlink="http://www.w3.org/1999/xlink">
    <!-- Generator: Sketch 48.1 (47250) - http://www.bohemiancoding.com/sketch -->
    <title>Page 1</title>
    <desc>Created with Sketch.</desc>
    <defs></defs>
    <g id="icon_48/white/icon_48_jobs-copy" stroke="none" stroke-width="1" fill="none" fill-rule="evenodd" transform="translate(-5.000000, -5.000000)">
        <path d="M20,9.7996 L28.2,9.7996 L28.2,7.9996 L20,7.9996 L20,9.7996 Z M29.6,27.4006 L40.2,27.4006 L40.2,12.9006 C40.2,12.8436 40.156,12.7996 40.1,12.7996 L8.1,12.7996 C8.044,12.7996 8,12.8436 8,12.9006 L8,27.4006 L18.6,27.4006 L18.6,25.7006 C18.6,24.8716 19.271,24.2006 20.1,24.2006 L28.1,24.2006 C28.929,24.2006 29.6,24.8716 29.6,25.7006 L29.6,27.4006 Z M21.6,30.5996 L26.6,30.5996 L26.6,27.2006 L21.6,27.2006 L21.6,30.5996 Z M9.6,30.4006 L9.6,39.4996 C9.6,39.5556 9.644,39.5996 9.7,39.5996 L38.5,39.5996 C38.555,39.5996 38.6,39.5546 38.6,39.4996 L38.6,30.4006 L29.6,30.4006 L29.6,32.0996 C29.6,32.9276 28.929,33.5996 28.1,33.5996 L20.1,33.5996 C19.271,33.5996 18.6,32.9276 18.6,32.0996 L18.6,30.4006 L9.6,30.4006 Z M38.5,42.5996 L9.7,42.5996 C7.991,42.5996 6.6,41.2086 6.6,39.4996 L6.6,30.4006 L6.5,30.4006 C5.671,30.4006 5,29.7286 5,28.9006 L5,12.9006 C5,11.1906 6.391,9.7996 8.1,9.7996 L17,9.7996 L17,6.4996 C17,5.6716 17.671,4.9996 18.5,4.9996 L29.7,4.9996 C30.529,4.9996 31.2,5.6716 31.2,6.4996 L31.2,9.7996 L40.1,9.7996 C41.81,9.7996 43.2,11.1906 43.2,12.9006 L43.2,28.9006 C43.2,29.7286 42.529,30.4006 41.7,30.4006 L41.6,30.4006 L41.6,39.4996 C41.6,41.2086 40.209,42.5996 38.5,42.5996 Z" id="Page-1" fill="#FFFFFF"></path>
    </g>
</svg>