<?xml version="1.0" encoding="UTF-8" standalone="no"?><svg width="18" height="15" viewBox="0 0 18 15" xmlns="http://www.w3.org/2000/svg"><title>Group</title><g fill="#FFF" fill-rule="evenodd"><path d="M17.91 2.733c.023.02.03.056.012.084l-5.942 9.492L6 9.37 11.689.282a.626.626 0 0 1 .788-.221l5.418 2.663.015.01c.031.024.05.061.05.1V14.34c0 .503-.444.691-.993.422l-4.987-2.452L6 9.37 11.689.282a.627.627 0 0 1 .692-.258l5.529 2.71zm-.021-.013L12.477.06l5.412 2.66z" opacity=".5"/><path d="M8.05 6.063L11.67.28a.626.626 0 0 1 .787-.221l5.418 2.663c.036.018.048.06.027.094l-5.942 9.492-2.99-1.47 2.99 1.47-3.91-6.246z" opacity=".7"/><path d="M5.95 2.74l.008.005a.085.085 0 0 1 .035.03l5.967 9.534-5.98-2.94V2.792c0-.021-.011-.04-.03-.05z" opacity=".85"/><path d="M5.98 14.34c0 .5-.372.726-.828.502L.497 12.554c-.273-.135-.497-.49-.497-.79V.543c0-.4.298-.582.662-.403L5.948 2.74c.02.01.032.029.032.05v11.55"/></g></svg>
