<?xml version="1.0" encoding="UTF-8"?>
<svg width="40px" height="39px" viewBox="0 0 40 39" version="1.1" xmlns="http://www.w3.org/2000/svg" xmlns:xlink="http://www.w3.org/1999/xlink">
    <!-- Generator: Sketch 48.1 (47250) - http://www.bohemiancoding.com/sketch -->
    <title>Page 1</title>
    <desc>Created with Sketch.</desc>
    <defs></defs>
    <g id="icon_48/blue/icon_48_jobs--copy" stroke="none" stroke-width="1" fill="none" fill-rule="evenodd" transform="translate(-5.000000, -5.000000)">
        <path d="M20.317982,9.90134575 L28.6918121,9.90134575 L28.6918121,8.06318791 L20.317982,8.06318791 L20.317982,9.90134575 Z M30.1214904,27.8754658 L40.9461977,27.8754658 L40.9461977,13.0680832 C40.9461977,13.0098749 40.9012649,12.9649421 40.8440778,12.9649421 L8.16571627,12.9649421 C8.10852914,12.9649421 8.06359639,13.0098749 8.06359639,13.0680832 L8.06359639,27.8754658 L18.8883037,27.8754658 L18.8883037,26.1394278 C18.8883037,25.292854 19.573528,24.6076296 20.4201018,24.6076296 L28.5896922,24.6076296 C29.436266,24.6076296 30.1214904,25.292854 30.1214904,26.1394278 L30.1214904,27.8754658 Z M21.9519,31.1422807 L27.057894,31.1422807 L27.057894,27.671226 L21.9519,27.671226 L21.9519,31.1422807 Z M9.69751447,30.9390622 L9.69751447,40.23095 C9.69751447,40.2881372 9.74244722,40.3330699 9.79963435,40.3330699 L39.2101597,40.3330699 C39.2663257,40.3330699 39.3122796,40.287116 39.3122796,40.23095 L39.3122796,30.9390622 L30.1214904,30.9390622 L30.1214904,32.6740789 C30.1214904,33.5196315 29.436266,34.2058771 28.5896922,34.2058771 L20.4201018,34.2058771 C19.573528,34.2058771 18.8883037,33.5196315 18.8883037,32.6740789 L18.8883037,30.9390622 L9.69751447,30.9390622 Z M9.79963435,43.3966663 C8.0544056,43.3966663 6.63391808,41.9761788 6.63391808,40.23095 L6.63391808,30.9390622 C5.68522439,30.9390622 5,30.2528166 5,29.407264 L5,13.0680832 C5,11.3218333 6.42048753,9.90134575 8.16571627,9.90134575 L17.2543856,9.90134575 L17.2543856,6.53138972 C17.2543856,5.68583711 17.93961,4.99959152 18.7861838,4.99959152 L30.2236103,4.99959152 C31.0701841,4.99959152 31.7554085,5.68583711 31.7554085,6.53138972 L31.7554085,9.90134575 L40.8440778,9.90134575 C42.5903278,9.90134575 44.0097941,11.3218333 44.0097941,13.0680832 L44.0097941,29.407264 C44.0097941,30.2528166 43.3245697,30.9390622 42.4779959,30.9390622 L42.375876,40.23095 C42.375876,41.9761788 40.9553885,43.3966663 39.2101597,43.3966663 L9.79963435,43.3966663 Z" id="Page-1" fill="#009CFF"></path>
    </g>
</svg>