<?xml version="1.0" encoding="UTF-8"?>
<svg width="48px" height="48px" viewBox="0 0 48 48" version="1.1" xmlns="http://www.w3.org/2000/svg" xmlns:xlink="http://www.w3.org/1999/xlink">
    <!-- Generator: Sketch 49.3 (51167) - http://www.bohemiancoding.com/sketch -->
    <title>play-knop</title>
    <desc>Created with Sketch.</desc>
    <defs></defs>
    <g id="Styleguide-general-UI-sheet" stroke="none" stroke-width="1" fill="none" fill-rule="evenodd">
        <g id="00-styleguide" transform="translate(-111.000000, -9417.000000)" fill="#FFFFFF">
            <g id="Buttons" transform="translate(79.000000, 8496.000000)">
                <g id="icon_48/white/play-knop" transform="translate(32.000000, 921.000000)">
                    <g id="icon_interface_48_playknop-">
                        <path d="M20.5,33.5 C20.1021265,33.5001592 19.7205031,33.3421751 19.439164,33.060836 C19.1578249,32.7794969 18.9998408,32.3978735 19,32 L19,16 C19.0000652,15.4358344 19.3166785,14.9194175 19.8194341,14.6634496 C20.3221897,14.4074817 20.9260506,14.4552578 21.3823,14.7871 L32.3823,22.7871 C32.7702522,23.0693843 32.9997618,23.5202174 32.9997618,24 C32.9997618,24.4797826 32.7702522,24.9306157 32.3823,25.2129 L21.3823,33.2129 C21.1260214,33.3996136 20.8170815,33.5001425 20.5,33.5 Z M22,18.9458 L22,29.0547 L28.95,24 L22,18.9458 Z" id="Shape" fill-rule="nonzero"></path>
                        <path d="M24,48 C10.745166,48 1.623249e-15,37.254834 0,24 C-1.623249e-15,10.745166 10.745166,2.4348735e-15 24,0 C37.254834,-2.4348735e-15 48,10.745166 48,24 C47.9848454,37.2485517 37.2485517,47.9848454 24,48 Z M24,3 C12.4020203,3 3,12.4020203 3,24 C3,35.5979797 12.4020203,45 24,45 C35.5979797,45 45,35.5979797 45,24 C44.9869941,12.4074118 35.5925882,3.01300595 24,3 Z" id="Shape" fill-rule="nonzero"></path>
                    </g>
                </g>
            </g>
        </g>
    </g>
</svg>