<svg id="Layer_1" xmlns="http://www.w3.org/2000/svg" viewBox="0 0 85 40"><style>.st0{fill:#002b50}.st1{fill:#009cff}</style><title>poki-logo-normal-</title><path class="st0" d="M73.6 30.6l-5-10.8c2-2.8 3.2-6.2 3.3-9.6V7.9h-8.8v2.2c-.1 2.9-1.1 4.2-3.6 5V0h-8.9v6.5c-3.5-3.4-8.2-5.3-13.1-5.1-5.8 0-10.6 2-13.9 5.8-1 1.2-1.8 2.5-2.5 3.8-2.2-2.2-5.2-3.2-8.7-3.2H0v32h8.2v-7.6h4.1c3.3.1 6.4-1.1 8.7-3.4.7 1.4 1.5 2.8 2.6 4 3.3 3.7 8.1 5.7 13.9 5.7 5.6 0 10.4-2 13.7-5.7.2-.3.4-.5.7-.8h7.7v-8l1.2-.3 3.8 8.2h20V14.5h-11v16.1zm-61-6.8H8.2v-7.7h4.3c1.1 0 3 .7 3 3.7-.1 1.9-.9 4-2.9 4zm24.8 8.8c-7 .1-12.7-5.5-12.8-12.5S30.1 7.4 37.1 7.3c7-.1 12.7 5.5 12.8 12.5 0 7-5.5 12.7-12.5 12.8z"/><path class="st0" d="M79 12.5c3.1 0 5.6-2.4 5.6-5.5s-2.4-5.6-5.5-5.6-5.6 2.4-5.6 5.5 2.4 5.6 5.5 5.6z"/><path class="st1" d="M37.4 20.7c-3.2-.1-6.4.4-9.5 1.3 1 5.2 6.1 8.6 11.4 7.6 3.8-.8 6.8-3.8 7.6-7.6-3.1-.9-6.3-1.4-9.5-1.3"/></svg>