<svg id="Layer_1" data-name="Layer 1" xmlns="http://www.w3.org/2000/svg" viewBox="0 0 161.26 163.52"><defs><style>.cls-1{fill:#002b50;}</style></defs><title>poki-logo-o</title><path class="cls-1" d="M141.27,25.23C126.75,8.73,105.91,0,81,0,55.34,0,34.09,8.89,19.53,25.7,6.94,40.25,0,60.07,0,81.51c0,22.08,7.07,42.25,19.91,56.8,14.56,16.5,35.69,25.22,61.1,25.22,24.87,0,45.7-8.69,60.25-25.15,12.9-14.59,20-34.61,20-56.36,0-22-7.1-42.14-20-56.79M80.63,137.57c-30.4,0-55.13-25.34-55.13-56.48C25.5,51.21,50.75,26,80.63,26s55.13,25.25,55.13,55.13c0,31.14-24.73,56.48-55.13,56.48"/></svg>