<svg id="Layer_1" data-name="Layer 1" xmlns="http://www.w3.org/2000/svg" viewBox="0 0 158.78 219.06"><defs><style>.cls-1{fill:#002b50;}</style></defs><title>poki-logo-p</title><path class="cls-1" d="M143.92,143.27c1.15-1.7,9-13.52,10.85-22.79a175.81,175.81,0,0,0,4-37,164.78,164.78,0,0,0-5-42C150.62,28.87,145,22.69,144,21.66l0,0C129.12,6.49,108.5,0,84,0H0V219.06H56V166.78H84c24.39,0,45-8.14,59.88-23.54ZM86.1,109l-30.08,0V56.33c8,0,24.44,0,29.25,0,7.58,0,20.23,5.11,20.23,25.32C105.51,94.66,100.13,109,86.1,109Z"/></svg>