<svg id="Layer_1" xmlns="http://www.w3.org/2000/svg" viewBox="0 0 22 16"><style>.st0{fill:#0389df}</style><title>Group 8</title><g id="Styleguide-general-UI-sheet"><g id="_x30_0-styleguide" transform="translate(-490 -5765)"><g id="icons" transform="translate(64 5047)"><g id="Group-8" transform="translate(427 719)"><g id="Page-1"><path class="st0" d="M17 15H3c-2.2 0-4-1.8-4-4V3C-1 .8.8-1 3-1h14c2.2 0 4 1.8 4 4v8c0 2.2-1.8 4-4 4zM3 1c-1.1 0-2 .9-2 2v8c0 1.1.9 2 2 2h14c1.1 0 2-.9 2-2V3c0-1.1-.9-2-2-2H3z"/><path class="st0" d="M10 11c-.3 0-.5-.1-.7-.3l-6-6c-.4-.4-.4-1 0-1.4s1-.4 1.4 0l6 6c.4.4.4 1 0 1.4-.2.2-.4.3-.7.3zM16 11c-.3 0-.5-.1-.7-.3l-3-3c-.4-.4-.4-1 0-1.4s1-.4 1.4 0l3 3c.4.4.4 1 0 1.4-.2.2-.4.3-.7.3z"/><path class="st0" d="M10 11c-.3 0-.5-.1-.7-.3-.4-.4-.4-1 0-1.4l6-6c.4-.4 1-.4 1.4 0s.4 1 0 1.4l-6 6c-.2.2-.4.3-.7.3zM4 11c-.3 0-.5-.1-.7-.3-.4-.4-.4-1 0-1.4l3-3c.4-.4 1-.4 1.4 0s.4 1 0 1.4l-3 3c-.2.2-.4.3-.7.3z"/></g></g></g></g></g></svg>