<?xml version="1.0" encoding="UTF-8" standalone="no"?><svg width="16" height="15" viewBox="0 0 16 15" xmlns="http://www.w3.org/2000/svg"><title>Fill 9</title><path d="M15.52 14.83h-3.327V9.477c0-1.344-.481-2.263-1.686-2.263-.918 0-1.467.621-1.707 1.218-.088.214-.11.51-.11.81v5.588H5.364s.043-9.067 0-10.004H8.69v1.417c.444-.685 1.233-1.652 3-1.652 2.188 0 3.83 1.428 3.83 4.502v5.737zM1.86 3.458h-.022C.722 3.458 0 2.689 0 1.729 0 .749.745 0 1.88 0c1.14 0 1.84.749 1.861 1.729 0 .96-.721 1.729-1.882 1.729zM.195 14.83h3.328V4.826H.196V14.83z" fill="#FFF" fill-rule="evenodd"/></svg>
