<?xml version="1.0" encoding="utf-8"?>
<!-- Generator: Adobe Illustrator 21.1.0, SVG Export Plug-In . SVG Version: 6.00 Build 0)  -->
<svg version="1.1" id="Layer_1" xmlns="http://www.w3.org/2000/svg" xmlns:xlink="http://www.w3.org/1999/xlink" x="0px" y="0px"
	 viewBox="0 0 22 16" style="enable-background:new 0 0 22 16;" xml:space="preserve">
<style type="text/css">
	.st0{fill:#009CFF;}
</style>
<title>Group 8</title>
<desc>Created with Sketch.</desc>
<g id="Styleguide-general-UI-sheet">
	<g id="_x30_0-styleguide" transform="translate(-490.000000, -5765.000000)">
		<g id="icons" transform="translate(64.000000, 5047.000000)">
			<g id="Group-8" transform="translate(427.000000, 719.000000)">
				<g id="Page-1">
					<path class="st0" d="M17,15H3c-2.2,0-4-1.8-4-4V3c0-2.2,1.8-4,4-4h14c2.2,0,4,1.8,4,4v8C21,13.2,19.2,15,17,15z M3,1
						C1.9,1,1,1.9,1,3v8c0,1.1,0.9,2,2,2h14c1.1,0,2-0.9,2-2V3c0-1.1-0.9-2-2-2H3z"/>
					<path class="st0" d="M10,11c-0.3,0-0.5-0.1-0.7-0.3l-6-6c-0.4-0.4-0.4-1,0-1.4s1-0.4,1.4,0l6,6c0.4,0.4,0.4,1,0,1.4
						C10.5,10.9,10.3,11,10,11z"/>
					<path class="st0" d="M16,11c-0.3,0-0.5-0.1-0.7-0.3l-3-3c-0.4-0.4-0.4-1,0-1.4s1-0.4,1.4,0l3,3c0.4,0.4,0.4,1,0,1.4
						C16.5,10.9,16.3,11,16,11z"/>
					<path class="st0" d="M10,11c-0.3,0-0.5-0.1-0.7-0.3c-0.4-0.4-0.4-1,0-1.4l6-6c0.4-0.4,1-0.4,1.4,0s0.4,1,0,1.4l-6,6
						C10.5,10.9,10.3,11,10,11z"/>
					<path class="st0" d="M4,11c-0.3,0-0.5-0.1-0.7-0.3c-0.4-0.4-0.4-1,0-1.4l3-3c0.4-0.4,1-0.4,1.4,0s0.4,1,0,1.4l-3,3
						C4.5,10.9,4.3,11,4,11z"/>
				</g>
			</g>
		</g>
	</g>
</g>
</svg>
