<?xml version="1.0" encoding="UTF-8" standalone="no"?><svg id="Layer_1" xmlns="http://www.w3.org/2000/svg" viewBox="0 0 16 16"><style>.st0{fill:#002b50}</style><title>icon24_ext_link copy</title><g id="Styleguide-general-UI-sheet"><g id="_x30_0-styleguide" transform="translate(-491 -5729)"><g id="icons" transform="translate(64 5047)"><g id="icon_x5F_interface_x5F_24_x2F_denim_x2F_icon24_x5F_ext_x5F_link-copy" transform="translate(427 682)"><g id="icon24_extlink-"><path id="Shape" class="st0" d="M12 16H4c-2.2 0-4-1.8-4-4V4c0-2.2 1.8-4 4-4h3c.6 0 1 .4 1 1s-.4 1-1 1H4c-1.1 0-2 .9-2 2v8c0 1.1.9 2 2 2h8c1.1 0 2-.9 2-2V9c0-.6.4-1 1-1s1 .4 1 1v3c0 2.2-1.8 4-4 4z"/><path id="Shape_1_" class="st0" d="M9 8c-.4 0-.8-.2-.9-.6-.2-.4-.1-.8.2-1.1l6-6c.4-.4 1-.4 1.4 0 .4.4.4 1 0 1.4l-6 6c-.2.2-.4.3-.7.3z"/><path id="Shape_2_" class="st0" d="M15 2h-4c-.6 0-1-.4-1-1s.4-1 1-1h4c.6 0 1 .4 1 1s-.4 1-1 1z"/><path id="Shape_3_" class="st0" d="M15 6c-.6 0-1-.4-1-1V1c0-.6.4-1 1-1s1 .4 1 1v4c0 .6-.4 1-1 1z"/></g></g></g></g></g></svg>
